<?xml version="1.0" standalone="no"?>
<!DOCTYPE svg PUBLIC "-//W3C//DTD SVG 20010904//EN"
 "http://www.w3.org/TR/2001/REC-SVG-20010904/DTD/svg10.dtd">
<svg version="1.0" xmlns="http://www.w3.org/2000/svg"
 width="992.000000pt" height="992.000000pt" viewBox="0 0 992.000000 992.000000"
 preserveAspectRatio="xMidYMid meet">
<metadata>
Created by potrace 1.11, written by Peter Selinger 2001-2013
</metadata>
<g transform="translate(0.000000,992.000000) scale(0.100000,-0.100000)"
fill="#000000" stroke="none">
<path d="M2134 8581 c-3 -3 -20 -7 -37 -7 -18 -1 -50 -4 -72 -7 -96 -14 -121
-18 -134 -23 -8 -2 -30 -7 -49 -10 -19 -3 -67 -14 -106 -25 -39 -11 -78 -21
-86 -24 -8 -2 -42 -13 -75 -25 -66 -23 -68 -23 -107 -35 -16 -4 -28 -10 -28
-14 0 -4 -9 -7 -20 -8 -27 -2 -259 -120 -360 -183 -83 -51 -216 -148 -275
-199 -54 -48 -250 -247 -289 -294 -21 -26 -55 -71 -75 -100 -20 -28 -42 -58
-49 -65 -6 -7 -12 -17 -12 -22 0 -5 -6 -15 -13 -22 -24 -25 -118 -200 -174
-328 -24 -54 -84 -227 -89 -255 -2 -11 -10 -45 -19 -75 -15 -55 -18 -70 -35
-170 -20 -124 -22 -151 -25 -297 -2 -144 5 -212 40 -368 25 -116 138 -343 242
-487 65 -91 268 -305 350 -370 30 -24 64 -51 76 -62 59 -50 328 -236 342 -236
4 0 19 -8 33 -18 24 -17 93 -56 160 -90 12 -7 32 -17 45 -24 41 -22 72 -37 97
-47 14 -6 32 -15 40 -19 45 -25 83 -42 96 -42 8 0 14 -4 14 -10 0 -5 10 -10
23 -10 13 0 27 -4 33 -9 11 -12 243 -100 352 -135 103 -32 257 -73 307 -80 22
-4 49 -9 59 -12 10 -4 67 -8 125 -9 118 -4 243 -13 281 -20 13 -3 42 -7 65
-10 208 -30 464 -126 605 -229 55 -40 139 -121 173 -167 22 -28 76 -137 82
-165 2 -10 10 -39 16 -64 15 -60 12 -238 -4 -300 -4 -14 -9 -37 -11 -51 -4
-27 -26 -94 -47 -144 -7 -16 -13 -32 -14 -35 -8 -26 -57 -111 -82 -145 -5 -5
-17 -23 -27 -40 -18 -27 -64 -80 -123 -140 -41 -42 -238 -185 -256 -185 -3 0
-39 -16 -80 -35 -110 -51 -240 -88 -367 -103 -107 -13 -379 -6 -485 13 -16 2
-43 7 -60 9 -46 7 -88 16 -115 23 -14 4 -32 7 -40 8 -41 5 -244 82 -321 122
-202 105 -363 268 -429 433 -8 19 -18 40 -22 45 -5 6 -22 30 -38 55 -37 57
-120 136 -186 176 -93 57 -175 78 -304 80 -63 1 -120 -2 -125 -7 -6 -4 -22
-10 -35 -12 -14 -2 -38 -9 -53 -15 -16 -7 -31 -12 -34 -12 -14 0 -122 -73
-158 -107 -86 -81 -149 -186 -176 -293 -13 -51 -17 -207 -7 -260 14 -69 71
-205 139 -330 28 -51 112 -175 120 -178 5 -2 9 -9 9 -15 0 -35 301 -338 406
-407 12 -8 43 -30 69 -47 25 -18 50 -33 55 -33 4 0 10 -4 12 -8 5 -13 173
-106 278 -155 84 -39 257 -111 270 -112 3 -1 44 -13 92 -28 48 -16 97 -30 108
-33 45 -10 57 -12 95 -22 41 -11 61 -15 150 -32 28 -5 61 -11 75 -14 14 -3 48
-8 75 -12 28 -3 59 -7 70 -9 191 -27 632 -26 769 1 12 2 48 9 81 14 33 5 105
21 160 35 55 14 118 30 139 36 22 5 44 13 50 17 6 4 14 7 19 8 4 1 8 2 10 4 1
1 11 3 21 5 21 4 163 62 186 76 8 5 22 12 30 15 37 15 158 80 273 147 18 11
41 27 53 38 11 10 26 19 32 19 7 0 12 4 12 9 0 5 8 12 18 15 9 3 31 19 49 36
18 16 35 30 38 30 11 0 81 65 201 186 178 180 299 348 408 569 51 105 123 284
129 322 1 10 5 23 9 28 3 6 9 26 14 45 4 19 9 40 10 45 50 214 63 333 59 565
-2 107 -6 206 -9 220 -2 14 -7 43 -10 66 -3 22 -12 69 -21 105 -9 35 -17 71
-20 80 -26 114 -128 349 -186 431 -10 14 -19 31 -19 37 0 6 -4 11 -10 11 -5 0
-10 6 -10 14 0 8 -3 16 -7 18 -5 2 -34 37 -65 78 -129 170 -310 330 -529 466
-100 62 -348 184 -374 184 -8 0 -15 4 -15 8 0 5 -6 9 -12 9 -7 0 -58 17 -113
36 -98 34 -265 82 -315 90 -14 2 -32 6 -40 9 -15 6 -126 27 -170 32 -14 2 -45
7 -70 10 -25 4 -61 8 -80 10 -19 2 -64 7 -100 10 -36 4 -132 9 -215 11 -262 8
-384 23 -575 71 -78 19 -200 62 -217 76 -7 6 -13 8 -13 4 0 -8 -119 57 -180
97 -78 53 -182 167 -221 242 -32 61 -42 92 -66 190 -5 23 -5 175 1 220 7 56
46 208 57 222 7 7 9 13 6 13 -8 0 30 81 67 145 129 221 364 406 626 495 63 21
74 24 123 35 12 2 35 7 50 11 63 13 88 15 235 18 84 1 183 -1 220 -6 124 -14
165 -20 186 -24 12 -3 32 -7 46 -9 108 -18 273 -72 415 -136 58 -26 200 -123
254 -173 29 -28 84 -92 122 -141 95 -128 181 -195 296 -234 103 -35 171 -41
286 -27 79 10 91 14 199 66 66 32 218 161 218 184 0 6 11 28 25 49 14 20 23
37 19 37 -3 0 -2 6 3 13 32 40 48 132 47 262 -1 85 -6 111 -31 176 -64 163
-256 401 -458 566 -66 54 -202 153 -210 153 -2 0 -30 16 -61 36 -108 69 -273
145 -509 234 -11 5 -54 18 -95 29 -41 12 -88 26 -105 31 -26 8 -76 20 -150 36
-38 8 -260 45 -295 49 -19 2 -56 6 -81 8 -25 2 -51 7 -57 11 -6 3 -13 2 -17
-3 -3 -6 -15 -7 -28 -2 -25 10 -454 11 -463 2z"/>
<path d="M5390 8564 c-94 -42 -163 -132 -177 -229 -5 -36 -4 -6689 2 -6715 2
-13 16 -48 30 -77 72 -147 257 -200 414 -118 66 34 138 133 148 204 2 14 4
706 4 1537 l1 1511 846 0 847 0 103 -211 c57 -116 165 -335 240 -486 75 -151
137 -277 137 -280 0 -3 7 -16 15 -30 8 -14 15 -27 15 -30 2 -8 101 -205 111
-221 5 -8 9 -16 9 -19 1 -3 67 -139 148 -304 81 -164 147 -302 147 -307 0 -5
5 -9 10 -9 6 0 10 -5 10 -10 0 -6 50 -111 110 -235 61 -123 110 -228 110 -234
0 -5 3 -11 8 -13 4 -1 23 -34 41 -73 227 -471 375 -756 410 -794 56 -59 119
-86 206 -85 122 0 218 61 273 174 22 45 27 67 26 127 -2 67 -6 81 -73 218 -39
81 -71 151 -71 156 0 5 -5 9 -10 9 -6 0 -9 3 -8 8 1 4 -45 102 -102 217 -57
116 -104 212 -105 215 0 3 -56 118 -124 255 -109 220 -333 678 -424 865 -17
36 -35 67 -39 68 -5 2 -8 8 -8 14 0 10 -60 135 -276 573 -70 143 -129 262
-129 265 -1 3 -23 48 -48 100 -26 52 -46 99 -44 104 2 6 14 11 28 12 113 11
355 82 509 150 71 32 216 107 242 125 14 10 29 19 32 19 9 0 170 114 240 169
66 53 254 251 319 338 42 56 77 104 77 107 0 3 13 24 29 48 64 95 183 369 206
476 3 12 7 31 9 42 3 11 7 24 10 29 3 5 8 26 11 47 3 22 7 50 10 64 14 69 20
160 20 305 0 174 -8 259 -35 390 -12 60 -44 165 -78 265 -22 61 -100 226 -135
281 -12 19 -33 54 -46 77 -14 23 -28 42 -33 42 -4 0 -8 5 -8 11 0 31 -280 335
-363 394 -16 11 -38 28 -50 39 -85 72 -332 216 -467 271 -36 14 -74 30 -85 35
-57 24 -103 38 -109 33 -3 -4 -6 0 -6 7 0 7 -3 11 -6 7 -3 -3 -18 -1 -33 5
-14 5 -33 11 -41 13 -8 2 -33 8 -55 13 -22 6 -51 13 -65 16 -14 3 -50 10 -80
16 -30 6 -77 13 -105 16 -27 3 -61 8 -75 12 -14 3 -603 7 -1310 9 l-1285 2
-55 -25z m2645 -588 c33 -6 69 -14 95 -21 3 -1 25 -5 50 -9 170 -31 442 -155
595 -271 22 -16 46 -34 54 -40 58 -41 227 -225 280 -305 91 -136 168 -316 187
-439 3 -20 8 -39 10 -42 6 -10 17 -159 17 -224 -1 -81 -11 -175 -28 -255 -3
-14 -7 -34 -9 -45 -9 -46 -51 -156 -91 -240 -76 -158 -187 -297 -350 -440
-118 -103 -403 -254 -550 -291 -5 -2 -44 -12 -85 -22 -41 -11 -95 -23 -120
-27 -25 -3 -57 -9 -72 -11 -15 -2 -68 -6 -118 -9 -50 -2 -95 -7 -101 -10 -5
-4 -9 -3 -9 2 0 6 -242 9 -260 2 -3 -1 -9 0 -15 1 -5 1 -57 1 -115 1 -203 -2
-252 -1 -261 5 -5 3 -9 1 -9 -5 0 -5 -11 -6 -27 -2 -16 4 -45 4 -65 1 -21 -4
-38 -5 -38 -1 0 3 -42 5 -92 3 -87 -2 -205 -2 -290 1 -21 0 -40 -2 -44 -5 -3
-4 -12 -4 -20 -1 -21 8 -224 9 -224 1 0 -4 -6 -5 -14 -2 -22 8 -116 10 -116 2
0 -4 -6 -5 -13 -2 -20 7 -177 10 -177 2 0 -3 -12 -3 -27 1 -16 4 -43 4 -60 0
-18 -4 -33 -4 -33 0 0 3 -17 6 -37 6 l-38 0 -1 1353 -2 1353 1092 -4 c600 -2
1109 -7 1131 -11z"/>
</g>
</svg>
