<?xml version="1.0" encoding="utf-8"?>
<!-- Generator: Adobe Illustrator 19.2.1, SVG Export Plug-In . SVG Version: 6.00 Build 0)  -->
<svg version="1.1" id="Layer_1" xmlns="http://www.w3.org/2000/svg" xmlns:xlink="http://www.w3.org/1999/xlink" x="0px" y="0px"
	 viewBox="0 0 192.729 22.725" style="enable-background:new 0 0 192.729 22.725;" xml:space="preserve">
<style type="text/css">
	.st0{fill:#010101;}
</style>
<path class="st0" d="M89.945,21.458c-0.258,0.728-0.949,1.248-1.763,1.248c-0.819,0-1.516-0.525-1.769-1.256L81.529,7.541
	L76.64,21.464c-0.273,0.715-0.95,1.242-1.76,1.242c-0.814,0-1.511-0.52-1.767-1.242l-6.645-18.94
	c-0.343-0.983,0.169-2.027,1.138-2.389c0.994-0.345,2.027,0.176,2.391,1.153l4.887,13.925l4.888-13.925
	c0.254-0.723,0.945-1.243,1.754-1.243c0.812,0,1.507,0.52,1.761,1.243l4.887,13.925l4.888-13.925c0.358-1.03,1.393-1.466,2.39-1.153
	c0.97,0.361,1.476,1.406,1.143,2.389L89.945,21.458z M35.384,22.718c1.043,0,1.884-0.841,1.884-1.883V1.927
	c0-1.039-0.845-1.882-1.884-1.882c-1.039,0-1.882,0.843-1.882,1.882v7.579h-9.744V1.927c0-1.045-0.821-1.882-1.87-1.882
	c-1.04,0-1.882,0.842-1.882,1.882v18.908c0,1.043,0.838,1.883,1.882,1.883c1.053,0,1.87-0.835,1.87-1.883v-7.579h9.744v7.579
	C33.502,21.878,34.341,22.718,35.384,22.718 M52.802,22.718c6.311,0,11.36-5.053,11.36-11.362C64.162,5.029,59.128,0,52.802,0
	C46.49,0,41.441,5.042,41.441,11.356C41.441,17.656,46.502,22.718,52.802,22.718 M60.424,11.356c0,4.227-3.392,7.629-7.622,7.629
	c-4.217,0-7.629-3.413-7.629-7.629c0-4.228,3.402-7.625,7.629-7.625C57.045,3.731,60.424,7.114,60.424,11.356z M101.912,0.061
	c-0.525,0-0.934,0.406-0.934,0.933v20.635c0,0.525,0.411,0.931,0.934,0.931c0.521,0,0.951-0.407,0.951-0.931v-9.355h5.283
	l4.893,9.921c0.223,0.475,0.78,0.665,1.244,0.427c0.473-0.232,0.66-0.775,0.43-1.249l-4.509-9.193
	c3.012-0.464,5.488-2.878,5.488-6.013c0-3.603-3.148-6.107-6.611-6.107H101.912z M109.189,10.392h-6.326V1.927h6.218
	c2.401,0,4.747,1.701,4.747,4.24C113.828,8.666,111.557,10.356,109.189,10.392z M129.489,22.719c6.307,0,11.345-5.037,11.345-11.344
	c0-6.31-5.034-11.346-11.345-11.346c-6.313,0-11.344,5.033-11.344,11.346C118.145,17.684,123.18,22.719,129.489,22.719
	 M138.952,11.375c0,5.242-4.226,9.445-9.463,9.445c-5.246,0-9.447-4.198-9.447-9.445c0-5.241,4.202-9.462,9.447-9.462
	C134.726,1.913,138.952,6.138,138.952,11.375z M155.151,22.719c6.307,0,11.345-5.036,11.345-11.344
	c0-6.311-5.034-11.346-11.345-11.346c-6.314,0-11.343,5.033-11.343,11.346C143.808,17.684,148.841,22.719,155.151,22.719
	 M164.614,11.375c0,5.242-4.226,9.445-9.463,9.445c-5.246,0-9.445-4.199-9.445-9.445c0-5.24,4.199-9.462,9.445-9.462
	C160.387,1.913,164.614,6.138,164.614,11.375z M172.242,4.413l8.507,14.067c0.166,0.259,0.442,0.426,0.813,0.426
	c0.37,0,0.657-0.21,0.786-0.458l8.496-14.035v17.355c0,0.531,0.397,0.95,0.933,0.95c0.531,0,0.952-0.419,0.952-0.95V1.028
	c0-0.476-0.235-0.776-0.698-0.903c-0.453-0.125-0.807,0.015-1.062,0.427l-9.429,15.584l-9.428-15.584
	c-0.251-0.412-0.607-0.552-1.059-0.427c-0.467,0.126-0.696,0.427-0.696,0.903v20.74c0,0.545,0.403,0.95,0.948,0.95
	c0.535,0,0.936-0.419,0.936-0.95V4.413z M7.665,9.521H7.585c-1.554-0.02-3.952-0.546-3.876-2.546C3.8,5.035,5.538,3.763,7.396,3.763
	c1.314,0,3.143,0.398,3.891,1.602c1.04,1.468,3.391,0.748,3.391-1.079c0-0.454-0.13-0.748-0.368-1.113
	C12.82,0.967,9.95,0.045,7.396,0.045c-3.879,0-7.213,2.814-7.389,6.771c-0.2,4.281,3.682,6.363,7.515,6.424h0.063
	c1.546,0,3.968,0.572,3.891,2.548C11.39,17.721,9.641,19,7.792,19c-1.519,0-3.455-0.461-4.085-2.021
	c-0.306-0.617-0.942-1.042-1.678-1.042c-1.03,0-1.866,0.836-1.866,1.867c0,0.196,0.031,0.387,0.089,0.566
	c1.136,3.05,4.496,4.348,7.539,4.348c3.863,0,7.214-2.81,7.387-6.756C15.377,11.685,11.499,9.588,7.665,9.521"/>
<g>
</g>
<g>
</g>
<g>
</g>
<g>
</g>
<g>
</g>
<g>
</g>
</svg>
